<?xml version="1.0" encoding="utf-8"?>
<!-- Generator: Adobe Illustrator 26.0.3, SVG Export Plug-In . SVG Version: 6.00 Build 0)  -->
<svg height="40" version="1.1" id="Ebene_1" xmlns="http://www.w3.org/2000/svg" xmlns:xlink="http://www.w3.org/1999/xlink" x="0px" y="0px"
	 viewBox="0 0 1985.98 283.46" style="enable-background:new 0 0 1985.98 283.46;" xml:space="preserve">
<path d="M72.57,188.77h28.85c26.8,0,45.99-18.78,45.99-47.62c0-28.84-19.19-47.62-45.99-47.62H72.57c-0.95,0-1.63,0.68-1.63,1.63
	v91.98C70.94,188.09,71.62,188.77,72.57,188.77z M87.54,110.13c0-0.54,0.41-0.82,0.82-0.82h11.29c15.51,0,30.21,8.03,30.21,31.84
	c0,23.81-14.69,31.84-30.21,31.84H88.35c-0.54,0-0.82-0.27-0.82-0.82V110.13z"/>
<path d="M166.18,188.77h13.33c0.95,0,1.63-0.68,1.63-1.63V95.16c0-0.95-0.68-1.63-1.63-1.63h-13.33c-0.95,0-1.63,0.68-1.63,1.63
	v91.98C164.55,188.09,165.23,188.77,166.18,188.77z"/>
<path d="M247.82,191.36c27.49,0,46.4-19.46,47.35-51.02c0-1.09-0.68-1.63-1.63-1.63h-41.23c-0.95,0-1.63,0.68-1.63,1.63v12.38
	c0,0.95,0.68,1.63,1.63,1.63h22.59c0.54,0,0.82,0.41,0.68,0.95c-3.27,12.11-13.2,19.46-27.76,19.46
	c-19.18,0-32.11-13.88-32.11-33.61c0-19.73,12.79-33.61,32.25-33.61c10.61,0,19.73,4.22,25.58,11.97c0.68,0.82,1.5,1.09,2.31,0.41
	l10.88-8.16c0.82-0.68,0.95-1.36,0.27-2.31c-8.57-11.57-22.59-18.5-39.05-18.5c-28.57,0-49.8,20.27-49.8,50.21
	C198.15,171.09,219.38,191.36,247.82,191.36z"/>
<path d="M312.45,188.77h13.33c0.95,0,1.63-0.68,1.63-1.63V95.16c0-0.95-0.68-1.63-1.63-1.63h-13.33c-0.95,0-1.63,0.68-1.63,1.63
	v91.98C310.81,188.09,311.49,188.77,312.45,188.77z"/>
<path d="M345.51,109.31h22.04c0.54,0,0.82,0.41,0.82,0.82v77.01c0,0.95,0.68,1.63,1.63,1.63h13.33c0.95,0,1.63-0.68,1.63-1.63
	v-77.01c0-0.54,0.27-0.82,0.82-0.82h22.04c0.95,0,1.63-0.68,1.63-1.63V95.16c0-0.95-0.68-1.63-1.63-1.63h-62.32
	c-0.95,0-1.63,0.68-1.63,1.63v12.52C343.88,108.63,344.56,109.31,345.51,109.31z"/>
<path d="M411.09,188.77h14.15c0.82,0,1.5-0.41,1.77-1.22l4.76-16.87c0.27-0.95,0.68-1.22,1.36-1.22h34.56
	c0.68,0,1.09,0.27,1.36,1.22l4.76,16.87c0.27,0.82,0.95,1.22,1.77,1.22h14.15c1.09,0,1.63-0.54,1.36-1.63l-26.26-91.57
	c-0.41-1.63-1.22-2.04-2.58-2.04h-23.68c-1.36,0-2.18,0.41-2.58,2.04l-26.26,91.57C409.46,188.23,410,188.77,411.09,188.77z
	 M436.81,152.85l12.11-42.59c0.14-0.54,0.41-0.82,0.82-0.82h1.36c0.41,0,0.68,0.27,0.82,0.82l12.11,42.59
	c0.14,0.68-0.14,0.95-0.68,0.95h-25.85C436.94,153.81,436.67,153.53,436.81,152.85z"/>
<path d="M510.41,188.77h46.26c0.95,0,1.63-0.68,1.63-1.63v-12.52c0-0.95-0.68-1.63-1.63-1.63H526.2c-0.54,0-0.82-0.41-0.82-0.82
	V95.16c0-0.95-0.68-1.63-1.63-1.63h-13.33c-0.95,0-1.63,0.68-1.63,1.63v91.98C508.78,188.09,509.46,188.77,510.41,188.77z"/>
<path d="M600.62,191.36c20.41,0,32.52-13.88,32.52-30.21c0-17.69-13.06-26.67-26.8-29.25l-6.94-1.22
	c-7.35-1.5-11.29-5.99-11.29-11.84c0-6.8,4.9-11.97,13.2-11.97c6.39,0,11.56,3.81,14.15,9.8c0.41,0.95,1.09,1.22,2.04,0.82
	l12.65-5.03c0.95-0.41,1.36-1.09,0.95-2.04c-4.9-11.57-15.51-19.32-29.66-19.32c-18.64,0-30.75,13.2-30.75,28.3
	c0,15.38,10.07,25.58,24.9,28.3l6.8,1.22c8.44,1.63,13.2,5.71,13.2,13.47c0,7.35-5.17,12.52-14.97,12.52
	c-7.76,0-13.88-3.81-16.33-11.29c-0.27-0.95-1.09-1.36-2.04-0.95l-12.65,5.17c-0.95,0.41-1.36,1.09-0.95,2.04
	C573.68,183.19,585.66,191.36,600.62,191.36z"/>
<path d="M644.3,109.31h22.04c0.54,0,0.82,0.41,0.82,0.82v77.01c0,0.95,0.68,1.63,1.63,1.63h13.33c0.95,0,1.63-0.68,1.63-1.63v-77.01
	c0-0.54,0.27-0.82,0.82-0.82h22.04c0.95,0,1.63-0.68,1.63-1.63V95.16c0-0.95-0.68-1.63-1.63-1.63H644.3c-0.95,0-1.63,0.68-1.63,1.63
	v12.52C642.67,108.63,643.35,109.31,644.3,109.31z"/>
<path d="M726.89,188.77h13.33c0.95,0,1.63-0.68,1.63-1.63v-25.31c0-0.54,0.41-0.82,0.82-0.82h9.12c1.22,0,1.77,0.27,2.58,1.36
	L771.93,187c0.95,1.5,1.63,1.77,3.27,1.77h16.33c1.36,0,1.77-0.95,0.95-2.04l-20.41-27.48c-0.54-0.68-0.41-1.36,0.54-1.77
	c11.97-4.76,19.87-15.24,19.87-30.21c0-21.23-15.92-33.74-36.46-33.74h-29.12c-0.95,0-1.63,0.68-1.63,1.63v91.98
	C725.26,188.09,725.94,188.77,726.89,188.77z M741.86,110.13c0-0.54,0.27-0.82,0.82-0.82h12.38c11.16,0,20,5.85,20,17.96
	s-8.84,17.96-20,17.96h-12.38c-0.54,0-0.82-0.41-0.82-0.82V110.13z"/>
<path d="M805.26,188.77h14.15c0.82,0,1.5-0.41,1.77-1.22l4.76-16.87c0.27-0.95,0.68-1.22,1.36-1.22h34.56
	c0.68,0,1.09,0.27,1.36,1.22l4.76,16.87c0.27,0.82,0.95,1.22,1.77,1.22h14.15c1.09,0,1.63-0.54,1.36-1.63l-26.26-91.57
	c-0.41-1.63-1.22-2.04-2.58-2.04h-23.68c-1.36,0-2.18,0.41-2.58,2.04l-26.26,91.57C803.63,188.23,804.17,188.77,805.26,188.77z
	 M830.98,152.85l12.11-42.59c0.14-0.54,0.41-0.82,0.82-0.82h1.36c0.41,0,0.68,0.27,0.82,0.82l12.11,42.59
	c0.14,0.68-0.14,0.95-0.68,0.95h-25.85C831.12,153.81,830.84,153.53,830.98,152.85z"/>
<path d="M887.31,109.31h22.04c0.54,0,0.82,0.41,0.82,0.82v77.01c0,0.95,0.68,1.63,1.63,1.63h13.33c0.95,0,1.63-0.68,1.63-1.63
	v-77.01c0-0.54,0.27-0.82,0.82-0.82h22.04c0.95,0,1.63-0.68,1.63-1.63V95.16c0-0.95-0.68-1.63-1.63-1.63h-62.32
	c-0.95,0-1.63,0.68-1.63,1.63v12.52C885.68,108.63,886.36,109.31,887.31,109.31z"/>
<path d="M969.9,188.77h49.39c0.95,0,1.63-0.68,1.63-1.63v-12.52c0-0.95-0.68-1.63-1.63-1.63h-33.61c-0.54,0-0.82-0.41-0.82-0.82
	v-22.86c0-0.54,0.41-0.82,0.82-0.82h33.61c0.95,0,1.63-0.68,1.63-1.63v-12.38c0-0.95-0.68-1.63-1.63-1.63h-33.61
	c-0.54,0-0.82-0.27-0.82-0.82v-21.91c0-0.54,0.41-0.82,0.82-0.82h33.61c0.95,0,1.63-0.68,1.63-1.63V95.16
	c0-0.95-0.68-1.63-1.63-1.63H969.9c-0.95,0-1.63,0.68-1.63,1.63v91.98C968.26,188.09,968.94,188.77,969.9,188.77z"/>
<path d="M1086.91,191.36c27.49,0,46.4-19.46,47.35-51.02c0-1.09-0.68-1.63-1.63-1.63h-41.23c-0.95,0-1.63,0.68-1.63,1.63v12.38
	c0,0.95,0.68,1.63,1.63,1.63h22.59c0.54,0,0.82,0.41,0.68,0.95c-3.27,12.11-13.2,19.46-27.76,19.46
	c-19.18,0-32.11-13.88-32.11-33.61c0-19.73,12.79-33.61,32.25-33.61c10.61,0,19.73,4.22,25.58,11.97c0.68,0.82,1.5,1.09,2.31,0.41
	l10.88-8.16c0.82-0.68,0.95-1.36,0.27-2.31c-8.57-11.57-22.59-18.5-39.05-18.5c-28.57,0-49.8,20.27-49.8,50.21
	C1037.25,171.09,1058.47,191.36,1086.91,191.36z"/>
<path d="M1154.94,188.77h13.33c0.95,0,1.63-0.68,1.63-1.63V95.16c0-0.95-0.68-1.63-1.63-1.63h-13.33c-0.95,0-1.63,0.68-1.63,1.63
	v91.98C1153.31,188.09,1153.99,188.77,1154.94,188.77z"/>
<path d="M1197.66,188.77h49.39c0.95,0,1.63-0.68,1.63-1.63v-12.52c0-0.95-0.68-1.63-1.63-1.63h-33.61c-0.54,0-0.82-0.41-0.82-0.82
	v-22.86c0-0.54,0.41-0.82,0.82-0.82h33.61c0.95,0,1.63-0.68,1.63-1.63v-12.38c0-0.95-0.68-1.63-1.63-1.63h-33.61
	c-0.54,0-0.82-0.27-0.82-0.82v-21.91c0-0.54,0.41-0.82,0.82-0.82h33.61c0.95,0,1.63-0.68,1.63-1.63V95.16
	c0-0.95-0.68-1.63-1.63-1.63h-49.39c-0.95,0-1.63,0.68-1.63,1.63v91.98C1196.03,188.09,1196.71,188.77,1197.66,188.77z"/>
<g>
	<path d="M1419.05,0v283.46h566.93V0H1419.05z M1699.68,277.8h-274.96V5.67h274.96V277.8z M1980.31,277.8h-274.96V5.67h274.96V277.8
		z"/>
</g>
<path d="M1564.34,198.02h-25.77c-0.97,0-1.45-0.72-1.45-1.45v-40.82c0-0.97,0.48-1.46,1.45-1.46h25.77
	c15.8,0,24.55,8.99,24.55,21.87C1588.89,189.27,1580.14,198.02,1564.34,198.02 M1561.91,84.31c15.31,0,23.82,8.26,23.82,20.9
	c0,12.64-8.51,21.14-23.82,21.14h-23.34c-0.97,0-1.45-0.48-1.45-1.46V85.77c0-0.97,0.48-1.46,1.45-1.46H1561.91z M1597.4,137.76
	c12.15-7.77,19.44-19.92,19.44-35.72c0-26-17.99-45.92-51.04-45.92h-55.42c-1.7,0-2.91,1.21-2.91,2.92v164.24
	c0,1.7,1.21,2.92,2.91,2.92h57.61c34.03,0,52.01-20.66,52.01-47.86c0-17.74-8.51-31.1-22.6-38.63
	C1596.42,138.98,1596.42,138.25,1597.4,137.76"/>
<path d="M1881.33,222.16c0,0-4.96-32.87-7.3-46.72c0.66-0.14,1.02-0.22,1.02-0.22c2.17-0.38,2.99-2.86,2.02-4.53
	c-5.61-9.66-7.61-21.69-7.61-33.64c0-7.37,1.23-14.45,3.51-21.05c0.13-0.38,0.27-0.75,0.41-1.13c0.08-0.23,0.24-0.74,0.28-0.82
	c1.51-3.29,4.24-10.43,5.04-18.43c0.65-6.47-0.17-11.87-1.3-16.93c-0.54-2.45-1.92-6.48-2.8-8.35c-0.15-0.27-0.3-0.54-0.45-0.8
	c2.02-2.03,2.42-5.28,0.86-7.98c-1.83-3.16-5.59-4.41-8.4-2.79c-0.3,0.17-0.99,0.66-1.3,0.88c-0.51-0.38-0.81-0.56-0.81-0.56
	c-0.02-0.01-0.79-0.52-1.47-0.88c0,0-0.26-0.13-0.26-0.14c-2.88-1.28-6.01-1.96-9.37-1.96c-1.64,0-3.24,0.17-4.8,0.49
	c-3.35,0.7-6.44,2.11-9.1,4.08c-1.39,0.44-2.88,0.55-2.88,0.55l-3.8,0.18c-1.79,0.08-3.83-0.01-3.83-0.01
	c-0.89,0-1.62,0.73-1.62,1.62c0,0.08,0.59,5.31,0.59,5.32c0.14,1.31,0.69,2.54,1.79,3.25l0.13,0.09c0.35,0.23,0.53,0.42,0.6,0.62
	c0.42,1.14,1.27,2.27,1.84,2.62c0.26,0.16,0.67,0.08,0.74-0.21c0.72-2.85,2.42,0.23,5.66-1.53c0.83-0.45,1.28,1.57,0.93,2.45
	l-0.3,0.76c-0.67,1.7-2.21,2.91-4.02,3.18c-1.43,0.21-2.26,0.35-2.24,0.55c0.17,1.61-0.02,3,1.62,3.97
	c0.48,0.26,0.72,0.32,0.72,0.32c2.51,0.66,9.83,3.47,0.52,14.46c0,0-0.88,0.99-1.56,1.97c-0.2,0.28-0.37,0.58-0.52,0.89l-0.19,0.4
	l-28-10.48c-0.84-0.33-1.93-1.25-2.45-1.99l-2.76-4.74c-1.71-2.37-3.21-3.27-6.18-3.51c-2.15-0.18-3.9-0.01-3.9-0.01
	c-0.83,0.04-1.31,0.24-1.49,0.72c-0.19,0.53-0.21,1.85,0.61,3.51l2.4,4.41c0.21,0.31,3.24,7.09,3.24,7.09
	c0.3,0.84,0.82,1.57,1.5,2.14c0.06,0.05,28.74,21.72,28.74,21.72l-30.29,15.11c-0.87,0.47-1.9,0.58-2.85,0.29
	c-1.11-0.34-2.7-0.82-2.71-0.82c-4.96-2.21-8.69-0.67-10.87,1.16c-0.02,0.02-0.86,0.81-0.86,0.81c-0.83,0.82-0.52,1.94,0.42,2.4
	c0,0,4.78,2.81,5.83,3.53l7.44,4.41c1.15,0.67,2.52,0.89,3.83,0.62l29.41-5.93c0.71,11.26,3.55,20.62,3.55,20.62
	c-5.3,5.1-12.61,14.83-15.01,28.19c-1.43,7.94-0.96,15.13,1.2,23.59c-4.11,0.23-8.07,0.83-11.36,3.12c-3.13,2.18-3.77,6.06-3.79,8
	l22.96,0.05l1.94-0.01c2.42-0.03,3.04-2.43,3.04-2.43c0.24-0.73,0.31-1.68,0.42-2.38c0.73-4.59,1.31-9.37,5.4-17.61
	c3.3-6.66,9.14-12.65,9.15-12.65c0.01,0.02,9.66,14.31,25.98,24.11c-3.13,0.2-7.17,1.23-9.57,2.56c-3.8,2.11-4.85,6.45-4.76,8.47
	h23.79c1.64,0,3-1.06,3.49-2.5c0.05-0.15,0.09-0.3,0.12-0.46c0.02-0.11,0.04-0.23,0.05-0.34
	C1881.36,222.66,1881.36,222.41,1881.33,222.16z"/>
<g>
	<path d="M0-0.58v283.46l1425.15,0.58V0L0-0.58z M1419.49,277.8h-197.13h-77.83h-5.67h-53.1L5.67,277.21V5.09l1080.08,0.58h53.1
		h5.67h77.83h197.13V277.8z"/>
</g>
</svg>
