<svg width="321" height="40" viewBox="0 0 321 40" xmlns="http://www.w3.org/2000/svg" xmlns:xlink="http://www.w3.org/1999/xlink">
    <defs>
        <filter x="-.7%" y="-6.2%" width="101.4%" height="115.6%" filterUnits="objectBoundingBox" id="a">
            <feOffset dy="2" in="SourceAlpha" result="shadowOffsetOuter1"/>
            <feGaussianBlur stdDeviation="3" in="shadowOffsetOuter1" result="shadowBlurOuter1"/>
            <feColorMatrix values="0 0 0 0 0 0 0 0 0 0 0 0 0 0 0 0 0 0 0.06 0" in="shadowBlurOuter1" result="shadowMatrixOuter1"/>
            <feOffset in="SourceAlpha" result="shadowOffsetOuter2"/>
            <feGaussianBlur stdDeviation="1" in="shadowOffsetOuter2" result="shadowBlurOuter2"/>
            <feColorMatrix values="0 0 0 0 0 0 0 0 0 0 0 0 0 0 0 0 0 0 0.15 0" in="shadowBlurOuter2" result="shadowMatrixOuter2"/>
            <feMerge>
                <feMergeNode in="shadowMatrixOuter1"/>
                <feMergeNode in="shadowMatrixOuter2"/>
            </feMerge>
        </filter>
        <path id="b" d="M0 0h1440v128H0z"/>
    </defs>
    <g fill="none" fill-rule="evenodd">
        <g transform="translate(-30 -64)">
            <use fill="#000" filter="url(#a)" xlink:href="#b"/>
            <use fill="#FFF" xlink:href="#b"/>
        </g>
        <g fill-rule="nonzero">
            <path d="M268.52 13.547v8.811c0 .114-.076.152-.132.038l-5.028-8.924a.34.34 0 0 0-.282-.152h-2.16a.22.22 0 0 0-.225.227V26.41a.22.22 0 0 0 .228.228h1.867a.222.222 0 0 0 .229-.228v-8.792c0-.114.076-.152.133-.038l5.028 8.906a.34.34 0 0 0 .282.152h2.152a.222.222 0 0 0 .228-.228V13.547a.222.222 0 0 0-.228-.229h-1.867a.222.222 0 0 0-.229.229M255.06 26.64h1.886a.22.22 0 0 0 .227-.23V13.548a.22.22 0 0 0-.227-.229h-1.886a.222.222 0 0 0-.229.229V26.41a.222.222 0 0 0 .229.229m-7.519-2.322V13.547a.22.22 0 0 0-.229-.229h-1.885a.22.22 0 0 0-.228.229V26.41a.22.22 0 0 0 .228.228h6.491a.22.22 0 0 0 .229-.228v-1.75a.22.22 0 0 0-.229-.229h-4.264a.109.109 0 0 1-.114-.113m-12.312-8.797h1.732c1.543 0 2.78.819 2.78 2.512 0 1.694-1.237 2.512-2.8 2.512h-1.712a.11.11 0 0 1-.115-.114v-4.798a.1.1 0 0 1 .115-.113m4.418 11.113h2.399c.19 0 .248-.134.14-.282l-2.857-3.86a.11.11 0 0 1 .038-.17c1.694-.686 2.823-2.19 2.823-4.282 0-2.963-2.248-4.72-5.104-4.72h-4.076a.22.22 0 0 0-.228.228v12.864a.22.22 0 0 0 .228.229h1.886a.222.222 0 0 0 .228-.229v-3.539a.11.11 0 0 1 .114-.114h1.447a.234.234 0 0 1 .152.076l2.553 3.653a.305.305 0 0 0 .267.153M229.309 15.3v-1.753a.22.22 0 0 0-.228-.229h-6.933a.222.222 0 0 0-.229.229V26.41a.222.222 0 0 0 .229.228h6.933a.22.22 0 0 0 .228-.228v-1.75a.22.22 0 0 0-.228-.229h-4.725a.109.109 0 0 1-.114-.113v-3.197a.11.11 0 0 1 .114-.114h4.723a.219.219 0 0 0 .229-.23V19.05a.22.22 0 0 0-.229-.228h-4.723a.1.1 0 0 1-.114-.113V15.64a.109.109 0 0 1 .114-.113h4.723a.22.22 0 0 0 .229-.228m-14.848 9.132h-2.02a.109.109 0 0 1-.114-.113v-3.197a.102.102 0 0 1 .115-.114h2.019c1.237 0 1.923.705 1.923 1.713 0 1.007-.686 1.711-1.923 1.711m-.19-8.904c1.199 0 1.865.646 1.865 1.636 0 .989-.666 1.655-1.866 1.655h-1.834a.1.1 0 0 1-.114-.113v-3.065a.1.1 0 0 1 .114-.113h1.834zm2.78 4.186a3.185 3.185 0 0 0 1.523-2.797c0-2.037-1.41-3.597-3.999-3.597h-4.342a.22.22 0 0 0-.228.228v12.864a.22.22 0 0 0 .228.229h4.516c2.667 0 4.075-1.619 4.075-3.75 0-1.388-.666-2.435-1.77-3.025-.077-.057-.077-.114 0-.152" fill="#E40422"/>
            <path d="M280.004 0H0v40h320.006V0h-40.002zm-80.001 39.201H.8V.801h199.203v38.4zm80.001 0h-79.2V.801h79.202l-.002 38.4zm39.202 0h-38.402V.801h38.402v38.4z" fill="#000"/>
            <path d="M291.331 19.756s.675.396.823.498l1.05.622a.77.77 0 0 0 .54.088l4.15-.837c.067.985.235 1.96.502 2.91a7.465 7.465 0 0 0-2.117 3.978c-.202 1.12-.141 2.135.17 3.329-.58.032-1.14.117-1.604.44-.442.308-.533.855-.536 1.129l3.246.007h.273a.468.468 0 0 0 .43-.344c.028-.11.048-.223.06-.336.102-.867.36-1.709.762-2.484a8.23 8.23 0 0 1 1.29-1.785 12.865 12.865 0 0 0 3.669 3.4 3.61 3.61 0 0 0-1.35.363 1.387 1.387 0 0 0-.672 1.194h3.352a.52.52 0 0 0 .493-.351c.007-.021.013-.044.018-.065.006-.021 0-.032 0-.048a.53.53 0 0 0 0-.106s-.705-4.638-1.029-6.594l.142-.03a.43.43 0 0 0 .282-.639c-.792-1.363-1.075-3.06-1.075-4.748-.001-1.009.166-2.01.495-2.964l.056-.16.04-.113a8.704 8.704 0 0 0 .705-2.601 7.393 7.393 0 0 0-.578-3.568l-.064-.112a.93.93 0 0 0 .122-1.13c-.26-.447-.79-.623-1.187-.394a2.34 2.34 0 0 0-.182.125 2.362 2.362 0 0 0-.116-.08s-.111-.074-.207-.123l-.037-.02a3.225 3.225 0 0 0-1.322-.275 3.284 3.284 0 0 0-1.961.645c-.133.04-.27.066-.407.077l-.536.026c-.253.01-.54 0-.54 0a.229.229 0 0 0-.23.228c0 .012.084.748.084.751.01.183.103.352.252.459l.019.013c.037.019.066.05.084.087.051.145.141.273.26.37.037.022.095.011.105-.03.103-.402.342.031.798-.216.117-.063.18.222.131.346l-.042.107a.724.724 0 0 1-.564.449c-.204.03-.32.05-.316.078.024.227 0 .423.228.564a.535.535 0 0 0 .102.044c.354.093 1.387.49.073 2.04-.079.09-.153.184-.221.282a1 1 0 0 0-.072.126l-.029.055-3.95-1.477a.905.905 0 0 1-.346-.283l-.39-.668a1.024 1.024 0 0 0-.872-.496 3.501 3.501 0 0 0-.549 0c-.118 0-.186.034-.21.103a.706.706 0 0 0 .084.496l.34.622c.03.044.458 1 .458 1a.706.706 0 0 0 .211.302l4.067 3.043-4.274 2.132a.525.525 0 0 1-.402.04l-.383-.115c-.705-.312-1.226-.094-1.534.164l-.12.114a.203.203 0 0 0 .058.346zM10.24 26.638h4.072c3.782 0 6.49-2.649 6.49-6.72s-2.707-6.72-6.49-6.72H10.24a.222.222 0 0 0-.23.23v12.983a.222.222 0 0 0 .23.227zm2.117-11.097a.11.11 0 0 1 .115-.116h1.594c2.189 0 4.262 1.129 4.262 4.493 0 3.364-2.077 4.495-4.266 4.495h-1.595a.102.102 0 0 1-.114-.116l.004-8.756z" fill="#000"/>
            <rect fill="#000" x="23.22" y="13.198" width="2.342" height="13.44" rx="1.171"/>
            <path d="M34.97 27.003c3.879 0 6.547-2.746 6.682-7.196a.213.213 0 0 0-.231-.23h-5.817a.222.222 0 0 0-.231.23v1.748a.222.222 0 0 0 .231.23h3.187a.096.096 0 0 1 .096.141c-.46 1.71-1.863 2.746-3.916 2.746-2.708 0-4.531-1.958-4.531-4.743 0-2.784 1.804-4.754 4.556-4.754 1.499 0 2.784.596 3.61 1.694.096.114.211.154.327.058l1.535-1.153a.207.207 0 0 0 .039-.326c-1.217-1.636-3.194-2.615-5.51-2.615-4.032 0-7.028 2.862-7.028 7.085 0 4.224 2.988 7.085 7.002 7.085z" fill="#000"/>
            <rect fill="#000" x="43.859" y="13.198" width="2.342" height="13.44" rx="1.171"/>
            <path d="M48.756 15.425h3.105a.111.111 0 0 1 .115.116v10.866a.222.222 0 0 0 .23.23h1.881a.222.222 0 0 0 .232-.23V15.54a.102.102 0 0 1 .114-.116h3.112a.222.222 0 0 0 .23-.23v-1.767a.222.222 0 0 0-.23-.23h-8.789a.222.222 0 0 0-.23.23v1.767a.222.222 0 0 0 .23.23zM58.01 26.638h1.997a.248.248 0 0 0 .25-.172l.672-2.38c.038-.142.095-.174.191-.174h4.877c.096 0 .154.038.192.173l.672 2.38a.25.25 0 0 0 .25.173h1.996c.154 0 .232-.076.192-.23l-3.705-12.922a.32.32 0 0 0-.364-.282h-3.342a.322.322 0 0 0-.364.282l-3.706 12.922c-.038.154.038.23.192.23zm3.63-5.069 1.707-6.008c.02-.078.058-.116.116-.116h.192c.058 0 .096.038.116.116l1.706 6.008c.018.096-.02.141-.096.141h-3.645c-.078-.005-.116-.045-.096-.14zM72.026 26.638h6.529a.222.222 0 0 0 .23-.23v-1.767a.222.222 0 0 0-.23-.23h-4.301a.111.111 0 0 1-.116-.116V13.43a.222.222 0 0 0-.23-.23h-1.882a.222.222 0 0 0-.23.23v12.982a.222.222 0 0 0 .23.226zM84.756 27.003c2.88 0 4.589-1.958 4.589-4.263 0-2.496-1.843-3.763-3.782-4.127l-.98-.174c-1.037-.21-1.593-.846-1.593-1.67 0-.96.69-1.692 1.861-1.692.904 0 1.633.537 1.997 1.382a.196.196 0 0 0 .282.116l1.786-.705c.14-.058.191-.154.14-.283-.69-1.63-2.188-2.726-4.185-2.726-2.63 0-4.339 1.863-4.339 3.994 0 2.17 1.421 3.61 3.514 3.993l.96.174c1.19.23 1.862.805 1.862 1.9 0 1.036-.73 1.767-2.117 1.767-1.093 0-1.958-.537-2.303-1.594a.198.198 0 0 0-.282-.134l-1.786.73c-.142.057-.192.153-.142.281.716 1.879 2.406 3.031 4.518 3.031zM90.92 15.425h3.104a.111.111 0 0 1 .116.116v10.866a.222.222 0 0 0 .23.23h1.882a.222.222 0 0 0 .23-.23V15.54a.102.102 0 0 1 .116-.116h3.104a.222.222 0 0 0 .23-.23v-1.767a.222.222 0 0 0-.23-.23H90.92a.222.222 0 0 0-.23.23v1.767a.222.222 0 0 0 .23.23zM102.574 26.638h1.88a.222.222 0 0 0 .232-.23v-3.572a.11.11 0 0 1 .115-.114h1.287a.377.377 0 0 1 .364.192l2.478 3.474a.437.437 0 0 0 .46.25h2.304c.192 0 .25-.141.141-.282l-2.88-3.878c-.076-.096-.058-.192.078-.25 1.693-.672 2.802-2.15 2.802-4.263 0-2.994-2.246-4.761-5.145-4.761h-4.116a.222.222 0 0 0-.23.23v12.982a.222.222 0 0 0 .23.222zm2.117-11.097a.102.102 0 0 1 .114-.116h1.747c1.575 0 2.822.826 2.822 2.54 0 1.715-1.249 2.54-2.822 2.54H104.8a.11.11 0 0 1-.115-.114l.005-4.85zM113.633 26.638h1.997a.248.248 0 0 0 .25-.172l.671-2.38c.04-.142.096-.174.192-.174h4.878c.095 0 .153.038.192.173l.673 2.38a.248.248 0 0 0 .25.173h1.997c.152 0 .23-.076.192-.23l-3.709-12.922a.322.322 0 0 0-.365-.282h-3.339a.322.322 0 0 0-.365.282l-3.706 12.922c-.038.154.038.23.192.23zm3.632-5.069 1.71-6.008c.017-.078.057-.116.113-.116h.194c.056 0 .096.038.114.116l1.709 6.008c.02.096-.02.141-.096.141h-3.65c-.077-.005-.116-.045-.094-.14zM125.211 15.425h3.105a.111.111 0 0 1 .116.116v10.866a.222.222 0 0 0 .23.23h1.88a.222.222 0 0 0 .232-.23V15.54a.102.102 0 0 1 .114-.116h3.105a.222.222 0 0 0 .231-.23v-1.767a.222.222 0 0 0-.231-.23h-8.782a.222.222 0 0 0-.23.23v1.767a.222.222 0 0 0 .23.23zM136.866 26.638h6.97a.222.222 0 0 0 .23-.23v-1.767a.222.222 0 0 0-.23-.23h-4.743a.111.111 0 0 1-.116-.116v-3.224a.111.111 0 0 1 .116-.116h4.742a.222.222 0 0 0 .23-.23v-1.748a.222.222 0 0 0-.23-.23h-4.742a.103.103 0 0 1-.116-.116v-3.09a.111.111 0 0 1 .116-.116h4.742a.222.222 0 0 0 .23-.23v-1.767a.222.222 0 0 0-.23-.23h-6.97a.222.222 0 0 0-.23.23v12.983a.222.222 0 0 0 .23.227zM153.378 27.003c3.879 0 6.547-2.746 6.681-7.196a.212.212 0 0 0-.23-.23h-5.818a.222.222 0 0 0-.23.23v1.748a.222.222 0 0 0 .23.23h3.19a.097.097 0 0 1 .095.141c-.461 1.71-1.862 2.746-3.917 2.746-2.707 0-4.531-1.958-4.531-4.743 0-2.784 1.805-4.742 4.55-4.742 1.498 0 2.785.595 3.61 1.693.096.114.21.154.326.058l1.536-1.153a.207.207 0 0 0 .04-.326c-1.212-1.633-3.189-2.612-5.504-2.612-4.033 0-7.028 2.862-7.028 7.085 0 4.224 2.986 7.071 7 7.071z" fill="#000"/>
            <rect fill="#000" x="162.747" y="13.198" width="2.342" height="13.44" rx="1.171"/>
            <path d="M169.006 26.638h6.97a.222.222 0 0 0 .23-.23v-1.767a.222.222 0 0 0-.23-.23h-4.742a.111.111 0 0 1-.116-.116v-3.224a.111.111 0 0 1 .116-.116h4.741a.222.222 0 0 0 .232-.23v-1.748a.222.222 0 0 0-.232-.23h-4.741a.102.102 0 0 1-.116-.116v-3.09a.111.111 0 0 1 .116-.116h4.741a.222.222 0 0 0 .232-.23v-1.767a.222.222 0 0 0-.232-.23h-6.97a.222.222 0 0 0-.23.23v12.983a.222.222 0 0 0 .23.227z" fill="#000"/>
        </g>
    </g>
</svg>
